<svg viewBox="-683 -331 1366 662" width="1366" height="662" style="background-color: rgb(255, 255, 255);" xmlns="http://www.w3.org/2000/svg"><path d="M370.3247958841145,-37.91048746525149L370.3247958841145,-13.072374543107557M370.3247958841145,-13.072374543107557L349.2017309491121,-10.931469183831863M370.3247958841145,-13.072374543107557L379.5701757587895,-8.181014367897406M370.3247958841145,-37.91048746525149L349.2017309491121,-35.7695821059758M370.3247958841145,-37.91048746525149L379.5701757587895,-33.01912729004134" style="fill:none;stroke:rgb(0,0,0);stroke-width:1;stroke-linecap:round"></path><path d="M370.3247958841145,-37.910487465251485L370.3247958841145,-13.072374543107557L349.2017309491121,-35.76958210597579zM370.3247958841145,-13.072374543107557L349.2017309491121,-10.931469183831863L349.2017309491121,-35.76958210597579zM379.5701757587895,-8.181014367897411L370.3247958841145,-13.072374543107557L370.3247958841145,-37.910487465251485z" style="fill:rgb(238,238,238); fill-opacity: 0.31"></path><path d="M349.2017309491121,-35.7695821059758L349.2017309491121,-10.931469183831863M349.2017309491121,-10.931469183831863L358.44711082378717,-6.0401090086217115" style="fill:none;stroke:rgb(0,0,0);stroke-width:1;stroke-linecap:round"></path><path d="M358.44711082378717,-6.0401090086217115L349.2017309491121,-10.931469183831863L370.3247958841145,-13.072374543107557z" style="fill:rgb(238,238,238); fill-opacity: 0.31"></path><path d="M349.2017309491121,-35.7695821059758L358.44711082378717,-30.878221930765648" style="fill:none;stroke:rgb(0,0,0);stroke-width:1;stroke-linecap:round"></path><path d="M379.5701757587895,-33.01912729004134L370.3247958841145,-37.910487465251485L349.2017309491121,-35.76958210597579zM379.5701757587895,-8.181014367897411L358.44711082378717,-6.0401090086217115L370.3247958841145,-13.072374543107557zM379.5701757587895,-33.01912729004134L379.5701757587895,-8.181014367897411L370.3247958841145,-37.910487465251485zM349.2017309491121,-35.76958210597579L349.2017309491121,-10.931469183831863L358.44711082378717,-30.878221930765648z" style="fill:rgb(238,238,238); fill-opacity: 0.31"></path><path d="M358.44711082378717,-6.0401090086217115L379.5701757587895,-8.181014367897406M379.5701757587895,-33.01912729004134L379.5701757587895,-8.181014367897406" style="fill:none;stroke:rgb(0,0,0);stroke-width:1;stroke-linecap:round"></path><path d="M349.2017309491121,-10.931469183831863L358.44711082378717,-6.0401090086217115L358.44711082378717,-30.878221930765648zM358.44711082378717,-6.0401090086217115L379.5701757587895,-8.181014367897411L379.5701757587895,-33.01912729004134zM358.44711082378717,-30.878221930765648L379.5701757587895,-33.01912729004134L349.2017309491121,-35.76958210597579z" style="fill:rgb(238,238,238); fill-opacity: 0.31"></path><path d="M358.44711082378717,-30.878221930765648L379.5701757587895,-33.01912729004134" style="fill:none;stroke:rgb(0,0,0);stroke-width:1;stroke-linecap:round"></path><path d="M325.687180139054,-26.698359270010982L324.34123338173043,-17.360200316555638L327.8649675167152,-18.273753288532525z" style="fill:rgb(0,0,0)"></path><path d="M358.44711082378717,-30.878221930765648L358.44711082378717,-6.0401090086217115" style="fill:none;stroke:rgb(0,0,0);stroke-width:1;stroke-linecap:round"></path><path d="M324.34123338173043,-17.360200316555638L327.8649675167152,-9.284540594216054L327.8649675167152,-18.273753288532525z" style="fill:rgb(0,0,0)"></path><path d="M358.44711082378717,-30.878221930765648L358.44711082378717,-6.0401090086217115L379.5701757587895,-33.01912729004134z" style="fill:rgb(238,238,238); fill-opacity: 0.31"></path><path d="M325.687180139054,-26.698359270010982L330.04275489437634,-24.393999126119905L350.4384052547636,-20.561659611756593zM331.38870165169993,-13.631667135760047L327.8649675167152,-9.284540594216054L350.4384052547636,-20.561659611756593z" style="fill:rgb(0,0,0)"></path><path d="M281.48141779300926,-53.871889676401096L281.48141779300926,20.898276314172083M281.48141779300926,20.898276314172083L260.3583528580069,23.039181673447775M281.48141779300926,20.898276314172083L290.7267976676843,25.789636489382236M289.49012336203265,-14.3843125390516L327.8649675167151,-18.273753288532514" style="fill:none;stroke:rgb(0,0,0);stroke-width:1;stroke-linecap:round"></path><path d="M330.04275489437634,-24.393999126119905L325.687180139054,-26.698359270010982L327.8649675167152,-18.273753288532525zM330.04275489437634,-24.393999126119905L331.38870165169993,-13.631667135760047L350.4384052547636,-20.561659611756593zM327.8649675167152,-9.284540594216054L331.38870165169993,-13.631667135760047L327.8649675167152,-18.273753288532525zM331.38870165169993,-13.631667135760047L330.04275489437634,-24.393999126119905L327.8649675167152,-18.273753288532525z" style="fill:rgb(0,0,0)"></path><path d="M260.3583528580069,-51.7309843171254L260.3583528580069,23.039181673447775M260.3583528580069,23.039181673447775L269.603732732682,27.93054184865793" style="fill:none;stroke:rgb(0,0,0);stroke-width:1;stroke-linecap:round"></path><path d="M281.48141779300926,20.898276314172083L260.3583528580069,23.039181673447775L260.3583528580069,-51.73098431712538zM290.7267976676843,25.789636489382236L281.48141779300926,20.898276314172083L281.48141779300926,-53.871889676401096zM269.6037327326819,27.93054184865793L260.3583528580069,23.039181673447775L281.48141779300926,20.898276314172083zM281.48141779300926,-53.871889676401096L281.48141779300926,20.898276314172083L260.3583528580069,-51.73098431712538zM290.7267976676843,25.789636489382236L269.6037327326819,27.93054184865793L281.48141779300926,20.898276314172083z" style="fill:rgb(238,238,238); fill-opacity: 0.31"></path><path d="M281.48141779300926,-53.871889676401096L260.3583528580069,-51.7309843171254M281.48141779300926,-53.871889676401096L290.7267976676843,-48.98052950119093M269.603732732682,27.93054184865793L290.7267976676843,25.789636489382236M290.7267976676843,-48.98052950119093L290.7267976676843,25.789636489382236" style="fill:none;stroke:rgb(0,0,0);stroke-width:1;stroke-linecap:round"></path><path d="M290.7267976676843,-48.98052950119093L290.7267976676843,25.789636489382236L281.48141779300926,-53.871889676401096z" style="fill:rgb(238,238,238); fill-opacity: 0.31"></path><path d="M260.3583528580069,-51.7309843171254L269.603732732682,-46.83962414191524" style="fill:none;stroke:rgb(0,0,0);stroke-width:1;stroke-linecap:round"></path><path d="M290.7267976676843,-48.98052950119093L281.48141779300926,-53.871889676401096L260.3583528580069,-51.73098431712538zM260.3583528580069,-51.73098431712538L260.3583528580069,23.039181673447775L269.6037327326819,-46.83962414191524zM260.3583528580069,23.039181673447775L269.6037327326819,27.93054184865793L269.6037327326819,-46.83962414191524zM269.6037327326819,27.93054184865793L290.7267976676843,25.789636489382236L290.7267976676843,-48.98052950119093z" style="fill:rgb(238,238,238); fill-opacity: 0.31"></path><path d="M269.603732732682,-46.83962414191524L269.603732732682,27.93054184865793" style="fill:none;stroke:rgb(0,0,0);stroke-width:1;stroke-linecap:round"></path><path d="M236.84380204794877,-17.69373494694594L235.49785529062518,-8.355575993490596L239.02158942560993,-9.269128965467493zM235.49785529062518,-8.355575993490596L239.02158942560993,-0.2799162711510229L239.02158942560993,-9.269128965467493z" style="fill:rgb(0,0,0)"></path><path d="M192.638039701904,-50.90387501332244L192.638039701904,35.9395102972235M192.638039701904,35.9395102972235L171.51497476690167,38.0804156564992M192.638039701904,35.9395102972235L201.88341957657906,40.83087047243365" style="fill:none;stroke:rgb(0,0,0);stroke-width:1;stroke-linecap:round"></path><path d="M236.84380204794877,-17.69373494694594L241.19937680327106,-15.389374803054874L261.5950271636585,-11.55703528869157z" style="fill:rgb(0,0,0)"></path><path d="M269.6037327326819,-46.83962414191524L290.7267976676843,-48.98052950119093L260.3583528580069,-51.73098431712538z" style="fill:rgb(238,238,238); fill-opacity: 0.31"></path><path d="M242.54532356059465,-4.627042812695016L239.02158942560993,-0.2799162711510229L261.5950271636585,-11.55703528869157z" style="fill:rgb(0,0,0)"></path><path d="M269.603732732682,-46.83962414191524L290.7267976676843,-48.98052950119093" style="fill:none;stroke:rgb(0,0,0);stroke-width:1;stroke-linecap:round"></path><path d="M269.6037327326819,-46.83962414191524L269.6037327326819,27.93054184865793L290.7267976676843,-48.98052950119093z" style="fill:rgb(238,238,238); fill-opacity: 0.31"></path><path d="M200.64674527092748,-5.379688215986581L239.02158942560996,-9.269128965467498" style="fill:none;stroke:rgb(0,0,0);stroke-width:1;stroke-linecap:round"></path><path d="M241.19937680327106,-15.389374803054874L236.84380204794877,-17.69373494694594L239.02158942560993,-9.269128965467493zM241.19937680327106,-15.389374803054874L242.54532356059465,-4.627042812695016L261.5950271636585,-11.55703528869157zM239.02158942560993,-0.2799162711510229L242.54532356059465,-4.627042812695016L239.02158942560993,-9.269128965467493zM242.54532356059465,-4.627042812695016L241.19937680327106,-15.389374803054874L239.02158942560993,-9.269128965467493z" style="fill:rgb(0,0,0)"></path><path d="M171.51497476690167,-48.76296965404674L171.51497476690167,38.0804156564992M171.51497476690167,38.0804156564992L180.76035464157673,42.97177583170935" style="fill:none;stroke:rgb(0,0,0);stroke-width:1;stroke-linecap:round"></path><path d="M180.7603546415767,42.97177583170935L171.51497476690167,38.0804156564992L192.63803970190403,35.9395102972235zM192.63803970190403,35.9395102972235L171.51497476690167,38.0804156564992L171.51497476690167,-48.76296965404674zM201.88341957657906,40.83087047243365L192.63803970190403,35.9395102972235L192.63803970190403,-50.90387501332244zM201.88341957657906,40.83087047243365L180.7603546415767,42.97177583170935L192.63803970190403,35.9395102972235zM192.63803970190403,-50.90387501332244L192.63803970190403,35.9395102972235L171.51497476690167,-48.76296965404674z" style="fill:rgb(238,238,238); fill-opacity: 0.31"></path><path d="M180.76035464157673,42.97177583170935L201.88341957657906,40.83087047243365M201.88341957657906,-46.012514838112295L201.88341957657906,40.83087047243365M192.638039701904,-50.90387501332244L171.51497476690167,-48.76296965404674M192.638039701904,-50.90387501332244L201.88341957657906,-46.012514838112295M84.87828791330882,-33.31327741229157L84.87828791330882,29.658642932141472M84.87828791330882,29.658642932141472L42.632158043304145,33.94045365069286M84.87828791330882,29.658642932141472L110.8333503640469,43.39042686504283" style="fill:none;stroke:rgb(0,0,0);stroke-width:1;stroke-linecap:round"></path><path d="M201.88341957657906,-46.012514838112295L201.88341957657906,40.83087047243365L192.63803970190403,-50.90387501332244z" style="fill:rgb(238,238,238); fill-opacity: 0.31"></path><path d="M180.76035464157673,-43.8716094788366L180.76035464157673,42.97177583170935" style="fill:none;stroke:rgb(0,0,0);stroke-width:1;stroke-linecap:round"></path><path d="M171.51497476690167,38.0804156564992L180.7603546415767,42.97177583170935L180.7603546415767,-43.8716094788366zM171.51497476690167,-48.76296965404674L171.51497476690167,38.0804156564992L180.7603546415767,-43.8716094788366z" style="fill:rgb(238,238,238); fill-opacity: 0.31"></path><path d="M171.51497476690167,-48.76296965404674L180.76035464157673,-43.8716094788366" style="fill:none;stroke:rgb(0,0,0);stroke-width:1;stroke-linecap:round"></path><path d="M180.7603546415767,42.97177583170935L201.88341957657906,40.83087047243365L201.88341957657906,-46.012514838112295zM201.88341957657906,-46.012514838112295L192.63803970190403,-50.90387501332244L171.51497476690167,-48.76296965404674z" style="fill:rgb(238,238,238); fill-opacity: 0.31"></path><path d="M148.00042395684366,-8.68911062388092L146.65447719952002,0.6490483295744267L150.17821133450477,-0.2645046424024651zM146.65447719952002,0.6490483295744267L150.17821133450477,8.724708051914003L150.17821133450477,-0.2645046424024651zM148.00042395684366,-8.68911062388092L152.35599871216587,-6.384750479989853L172.7516490725533,-2.5524109656265326zM153.7019454694895,4.377581510370011L150.17821133450477,8.724708051914003L172.7516490725533,-2.5524109656265326z" style="fill:rgb(0,0,0)"></path><path d="M180.7603546415767,-43.8716094788366L180.7603546415767,42.97177583170935L201.88341957657906,-46.012514838112295zM180.7603546415767,-43.8716094788366L201.88341957657906,-46.012514838112295L171.51497476690167,-48.76296965404674z" style="fill:rgb(238,238,238); fill-opacity: 0.31"></path><path d="M111.80336717982229,3.62493610707845L150.17821133450477,-0.26450464240246624M180.76035464157673,-43.8716094788366L201.88341957657906,-46.012514838112295M84.87828791330882,-33.31327741229157L42.632158043304145,-29.031466693740178M84.87828791330882,-33.31327741229157L110.8333503640469,-19.581493479390204" style="fill:none;stroke:rgb(0,0,0);stroke-width:1;stroke-linecap:round"></path><path d="M152.35599871216587,-6.384750479989853L148.00042395684366,-8.68911062388092L150.17821133450477,-0.2645046424024651zM152.35599871216587,-6.384750479989853L153.7019454694895,4.377581510370011L172.7516490725533,-2.5524109656265326zM150.17821133450477,8.724708051914003L153.7019454694895,4.377581510370011L150.17821133450477,-0.2645046424024651z" style="fill:rgb(0,0,0)"></path><path d="M84.8782879133088,-33.313277412291576L84.8782879133088,29.658642932141465L42.63215804330412,-29.031466693740185zM84.8782879133088,29.658642932141465L42.63215804330412,33.94045365069286L42.63215804330412,-29.031466693740185z" style="fill:rgb(238,238,238); fill-opacity: 0.31"></path><path d="M42.632158043304145,-29.031466693740178L42.632158043304145,33.94045365069286M42.632158043304145,33.94045365069286L68.58722049404223,47.672237583594224" style="fill:none;stroke:rgb(0,0,0);stroke-width:1;stroke-linecap:round"></path><path d="M153.7019454694895,4.377581510370011L152.35599871216587,-6.384750479989853L150.17821133450477,-0.2645046424024651z" style="fill:rgb(0,0,0)"></path><path d="M110.83335036404688,43.39042686504283L84.8782879133088,29.658642932141465L84.8782879133088,-33.313277412291576zM68.58722049404221,47.672237583594224L42.63215804330412,33.94045365069286L84.8782879133088,29.658642932141465z" style="fill:rgb(238,238,238); fill-opacity: 0.31"></path><path d="M42.632158043304145,-29.031466693740178L68.58722049404223,-15.299682760838815M-29.710845345436894,-35.828954280609544L-29.710845345436898,49.57401860428545M-29.710845345436898,49.57401860428545L-71.95697521544157,53.85582932283684M-29.710845345436898,49.57401860428545L5.48959768666289,68.19716308627656M-26.421976168630486,5.077247170948296L46.69638291069091,5.974873444694118M-26.421976168630486,15.864302832767125L46.69638291069091,5.974873444694118M-21.975887575384842,18.216550222842283L46.69638291069091,5.974873444694118M-21.975887575384842,7.429494561023458L46.69638291069091,5.974873444694118" style="fill:none;stroke:rgb(0,0,0);stroke-width:1;stroke-linecap:round"></path><path d="M110.83335036404688,-19.58149347939021L84.8782879133088,-33.313277412291576L42.63215804330412,-29.031466693740185zM110.83335036404688,43.39042686504283L68.58722049404221,47.672237583594224L84.8782879133088,29.658642932141465z" style="fill:rgb(238,238,238); fill-opacity: 0.31"></path><path d="M-26.421974697316617,15.864302613544611L-26.421974697316617,5.07724738036485L46.696370638009796,5.97487455634564z" style="fill:rgb(255,187,187); fill-opacity: 0.4"></path><path d="M42.63215804330412,-29.031466693740185L42.63215804330412,33.94045365069286L68.58722049404221,-15.299682760838811z" style="fill:rgb(238,238,238); fill-opacity: 0.31"></path><path d="M-21.975886810757626,18.216549629740175L-26.421974697316617,15.864302613544611L46.696370638009796,5.97487455634564z" style="fill:rgb(255,187,187); fill-opacity: 0.4"></path><path d="M110.83335036404688,-19.58149347939021L110.83335036404688,43.39042686504283L84.8782879133088,-33.313277412291576z" style="fill:rgb(238,238,238); fill-opacity: 0.31"></path><path d="M-26.421974697316617,5.07724738036485L-21.975886810757626,7.42949439656041L46.696370638009796,5.97487455634564z" style="fill:rgb(255,187,187); fill-opacity: 0.4"></path><path d="M-26.421976168630486,5.077247170948296L-26.421976168630486,15.864302832767125M-26.421976168630486,15.864302832767125L-21.975887575384842,18.216550222842283M-26.421974639273934,5.077247374481996L-26.421974639273934,15.86430260766176M-26.421974639273934,15.86430260766176L-68.6681045092786,20.14611332621315M-26.421974639273934,15.86430260766176L-21.97588675271494,18.216549623857325M-71.95697521544157,-31.547143562058157L-71.95697521544157,53.85582932283684M-71.95697521544157,53.85582932283684L-36.75653218334179,72.47897380482794" style="fill:none;stroke:rgb(0,0,0);stroke-width:1;stroke-linecap:round"></path><path d="M-21.975886810757626,7.42949439656041L-21.975886810757626,18.216549629740175L46.696370638009796,5.97487455634564z" style="fill:rgb(255,187,187); fill-opacity: 0.4"></path><path d="M-26.421976168630486,5.077247170948296L-21.975887575384842,7.429494561023458M-26.421974639273934,5.077247374481996L-68.6681045092786,9.359058093033388M-26.421974639273934,5.077247374481996L-21.97588675271494,7.4294943906775615" style="fill:none;stroke:rgb(0,0,0);stroke-width:1;stroke-linecap:round"></path><path d="M-29.710845345436894,49.57401860428545L-71.95697521544157,53.85582932283684L-71.95697521544157,-31.547143562058153zM-29.710845345436894,-35.828954280609544L-29.710845345436894,49.57401860428545L-71.95697521544157,-31.547143562058153z" style="fill:rgb(238,238,238); fill-opacity: 0.31"></path><path d="M-21.975886752714946,18.216549623857322L-26.421974639273934,15.864302607661758L-26.421974639273934,5.077247374481994z" style="fill:rgb(153,221,255); fill-opacity: 0.4"></path><path d="M-26.421974697316617,5.07724738036485L-26.421974697316617,15.864302613544611L-21.975886810757626,18.216549629740175z" style="fill:rgb(255,187,187); fill-opacity: 0.4"></path><path d="M-29.710845345436894,-35.828954280609544L-71.95697521544157,-31.547143562058157M-29.710845345436894,-35.828954280609544L5.489597686662894,-17.205809798618443" style="fill:none;stroke:rgb(0,0,0);stroke-width:1;stroke-linecap:round"></path><path d="M-26.421974639273934,5.077247374481994L-26.421974639273934,15.864302607661758L-68.6681045092786,9.359058093033383z" style="fill:rgb(153,221,255); fill-opacity: 0.4"></path><path d="M68.58722049404223,47.672237583594224L110.8333503640469,43.39042686504283M110.8333503640469,-19.581493479390204L110.8333503640469,43.39042686504283" style="fill:none;stroke:rgb(0,0,0);stroke-width:1;stroke-linecap:round"></path><path d="M-21.975886752714946,7.429494390677559L-21.975886752714946,18.216549623857322L-26.421974639273934,5.077247374481994z" style="fill:rgb(153,221,255); fill-opacity: 0.4"></path><path d="M-26.421974697316617,5.07724738036485L-21.975886810757626,18.216549629740175L-21.975886810757626,7.42949439656041z" style="fill:rgb(255,187,187); fill-opacity: 0.4"></path><path d="M-64.22201662271962,22.49836034240872L-21.97588675271494,18.216549623857325M-21.97588675271494,7.4294943906775615L-21.97588675271494,18.216549623857325M-21.975887575384842,18.216550222842283L-21.975887575384842,7.429494561023458" style="fill:none;stroke:rgb(0,0,0);stroke-width:1;stroke-linecap:round"></path><path d="M42.63215804330412,33.94045365069286L68.58722049404221,47.672237583594224L68.58722049404221,-15.299682760838811z" style="fill:rgb(238,238,238); fill-opacity: 0.31"></path><path d="M-21.975886752714946,7.429494390677559L-26.421974639273934,5.077247374481994L-68.6681045092786,9.359058093033383z" style="fill:rgb(153,221,255); fill-opacity: 0.4"></path><path d="M-64.22201662271962,11.711305109228952L-21.97588675271494,7.4294943906775615" style="fill:none;stroke:rgb(0,0,0);stroke-width:1;stroke-linecap:round"></path><path d="M-21.975886752714946,18.216549623857322L-64.22201662271962,22.498360342408713L-26.421974639273934,15.864302607661758zM-26.421974639273934,15.864302607661758L-68.6681045092786,20.14611332621315L-68.6681045092786,9.359058093033383zM-64.22201662271962,22.498360342408713L-68.6681045092786,20.14611332621315L-26.421974639273934,15.864302607661758z" style="fill:rgb(153,221,255); fill-opacity: 0.4"></path><path d="M68.58722049404221,-15.299682760838811L110.83335036404688,-19.58149347939021L42.63215804330412,-29.031466693740185z" style="fill:rgb(238,238,238); fill-opacity: 0.31"></path><path d="M-64.22201662271962,22.498360342408713L-21.975886752714946,18.216549623857322L-21.975886752714946,7.429494390677559z" style="fill:rgb(153,221,255); fill-opacity: 0.4"></path><path d="M5.4895976866628855,68.19716308627656L-29.710845345436894,49.57401860428545L-29.710845345436894,-35.828954280609544z" style="fill:rgb(238,238,238); fill-opacity: 0.31"></path><path d="M-68.6681045092786,9.359058093033388L-68.6681045092786,20.14611332621315M-68.6681045092786,20.14611332621315L-64.22201662271962,22.49836034240872" style="fill:none;stroke:rgb(0,0,0);stroke-width:1;stroke-linecap:round"></path><path d="M68.58722049404221,47.672237583594224L110.83335036404688,43.39042686504283L110.83335036404688,-19.58149347939021z" style="fill:rgb(238,238,238); fill-opacity: 0.31"></path><path d="M-68.6681045092786,9.359058093033388L-64.22201662271962,11.711305109228952" style="fill:none;stroke:rgb(0,0,0);stroke-width:1;stroke-linecap:round"></path><path d="M-64.22201662271962,11.711305109228952L-21.975886752714946,7.429494390677559L-68.6681045092786,9.359058093033383z" style="fill:rgb(153,221,255); fill-opacity: 0.4"></path><path d="M-36.75653218334179,72.47897380482796L-71.95697521544157,53.85582932283684L-29.710845345436894,49.57401860428545z" style="fill:rgb(238,238,238); fill-opacity: 0.31"></path><path d="M-71.95697521544157,-31.547143562058157L-36.75653218334178,-12.923999080067052" style="fill:none;stroke:rgb(0,0,0);stroke-width:1;stroke-linecap:round"></path><path d="M-68.6681045092786,9.359058093033383L-68.6681045092786,20.14611332621315L-64.22201662271962,11.711305109228952z" style="fill:rgb(153,221,255); fill-opacity: 0.4"></path><path d="M68.58722049404223,-15.299682760838815L110.8333503640469,-19.581493479390204" style="fill:none;stroke:rgb(0,0,0);stroke-width:1;stroke-linecap:round"></path><path d="M-64.22201662271962,11.711305109228952L-64.22201662271962,22.498360342408713L-21.975886752714946,7.429494390677559zM-68.6681045092786,20.14611332621315L-64.22201662271962,22.498360342408713L-64.22201662271962,11.711305109228952z" style="fill:rgb(153,221,255); fill-opacity: 0.4"></path><path d="M68.58722049404223,-15.299682760838815L68.58722049404223,47.672237583594224M-64.22201662271962,11.711305109228952L-64.22201662271962,22.49836034240872" style="fill:none;stroke:rgb(0,0,0);stroke-width:1;stroke-linecap:round"></path><path d="M68.58722049404221,-15.299682760838811L68.58722049404221,47.672237583594224L110.83335036404688,-19.58149347939021z" style="fill:rgb(238,238,238); fill-opacity: 0.31"></path><path d="M-139.67728913046454,-24.683424521349295L-139.67728913046454,60.719548363545705M-139.67728913046454,60.719548363545705L-174.88239574089036,64.28772379869471M-139.67728913046454,60.719548363545705L-104.47684609836476,79.3426928455368" style="fill:none;stroke:rgb(0,0,0);stroke-width:1;stroke-linecap:round"></path><path d="M5.4895976866628855,-17.20580979861844L-29.710845345436894,-35.828954280609544L-71.95697521544157,-31.547143562058153z" style="fill:rgb(238,238,238); fill-opacity: 0.31"></path><path d="M-125.99501381247516,48.05190987536824L-56.051662936690775,47.75784277842886M-125.99501381247516,58.83896339399174L-56.051662936690775,47.75784277842886M-121.54892583758034,61.19121045692226L-56.051662936690775,47.75784277842886M-121.54892583758034,50.40415693829875L-56.051662936690775,47.75784277842886" style="fill:none;stroke:rgb(0,0,0);stroke-width:1;stroke-linecap:round"></path><path d="M-71.95697521544157,-31.547143562058153L-71.95697521544157,53.85582932283684L-36.75653218334179,-12.92399908006705zM5.4895976866628855,68.19716308627656L-36.75653218334179,72.47897380482796L-29.710845345436894,49.57401860428545z" style="fill:rgb(238,238,238); fill-opacity: 0.31"></path><path d="M-174.88239574089036,-21.11524908620028L-174.88239574089036,64.28772379869471M-174.88239574089036,64.28772379869471L-139.6819527087906,82.91086828068582" style="fill:none;stroke:rgb(0,0,0);stroke-width:1;stroke-linecap:round"></path><path d="M-139.67728913046454,60.719548363545705L-174.88239574089036,64.28772379869471L-174.88239574089036,-21.115249086200283zM-139.67728913046454,-24.6834245213493L-139.67728913046454,60.719548363545705L-174.88239574089036,-21.115249086200283zM5.4895976866628855,-17.20580979861844L5.4895976866628855,68.19716308627656L-29.710845345436894,-35.828954280609544z" style="fill:rgb(238,238,238); fill-opacity: 0.31"></path><path d="M-139.67728913046454,-24.683424521349295L-174.88239574089036,-21.11524908620028M-139.67728913046454,-24.683424521349295L-104.47684609836476,-6.060280039358191" style="fill:none;stroke:rgb(0,0,0);stroke-width:1;stroke-linecap:round"></path><path d="M-125.99501590910972,58.83896506032011L-125.99501590910972,48.051909827140356L-56.05165875168465,47.757841982155824zM-121.54892802255073,61.19121207651568L-125.99501590910972,58.83896506032011L-56.05165875168465,47.757841982155824zM-125.99501590910972,48.051909827140356L-121.54892802255073,50.40415684333592L-56.05165875168465,47.757841982155824z" style="fill:rgb(255,187,187); fill-opacity: 0.4"></path><path d="M-71.95697521544157,53.85582932283684L-36.75653218334179,72.47897380482796L-36.75653218334179,-12.92399908006705z" style="fill:rgb(238,238,238); fill-opacity: 0.31"></path><path d="M-247.22540076355702,-27.912736507464896L-247.22540076355702,79.92128891789207M-247.22540076355702,79.92128891789207L-282.43050737398283,83.48946435304109M-247.22540076355702,79.92128891789207L-202.77957715009555,103.43579394897293M-36.75653218334179,72.47897380482794L5.48959768666289,68.19716308627656M5.489597686662894,-17.205809798618443L5.48959768666289,68.19716308627656" style="fill:none;stroke:rgb(0,0,0);stroke-width:1;stroke-linecap:round"></path><path d="M-121.54892802255073,50.40415684333592L-121.54892802255073,61.19121207651568L-56.05165875168465,47.757841982155824z" style="fill:rgb(255,187,187); fill-opacity: 0.4"></path><path d="M-125.99501381247516,48.05190987536824L-125.99501381247516,58.83896339399174M-125.99501381247516,58.83896339399174L-121.54892583758034,61.19121045692226M-125.99501666802983,48.05190990405988L-125.99501666802986,58.83896513723965M-125.99501666802986,58.83896513723965L-161.20012327845566,62.40714057238866M-125.99501666802986,58.83896513723965L-121.54892878147085,61.19121215343521" style="fill:none;stroke:rgb(0,0,0);stroke-width:1;stroke-linecap:round"></path><path d="M-104.47684609836476,79.3426928455368L-139.67728913046454,60.719548363545705L-139.67728913046454,-24.6834245213493z" style="fill:rgb(238,238,238); fill-opacity: 0.31"></path><path d="M-125.99501381247516,48.05190987536824L-121.54892583758034,50.40415693829875M-125.99501666802983,48.05190990405988L-161.20012327845566,51.6200853392089M-125.99501666802983,48.05190990405988L-121.54892878147085,50.404156920255446M-174.88239574089036,-21.11524908620028L-139.68195270879056,-2.492104604209177" style="fill:none;stroke:rgb(0,0,0);stroke-width:1;stroke-linecap:round"></path><path d="M-139.6819527087906,82.91086828068582L-174.88239574089036,64.28772379869471L-139.67728913046454,60.719548363545705z" style="fill:rgb(238,238,238); fill-opacity: 0.31"></path><path d="M-125.99501590910972,48.051909827140356L-125.99501590910972,58.83896506032011L-121.54892802255073,61.19121207651568z" style="fill:rgb(255,187,187); fill-opacity: 0.4"></path><path d="M-121.54892878147085,61.19121215343521L-125.99501666802986,58.83896513723964L-125.99501666802986,48.05190990405988z" style="fill:rgb(153,221,255); fill-opacity: 0.4"></path><path d="M-36.75653218334179,-12.92399908006705L5.4895976866628855,-17.20580979861844L-71.95697521544157,-31.547143562058153z" style="fill:rgb(238,238,238); fill-opacity: 0.31"></path><path d="M-125.99501666802986,48.05190990405988L-125.99501666802986,58.83896513723964L-161.20012327845566,51.6200853392089z" style="fill:rgb(153,221,255); fill-opacity: 0.4"></path><path d="M-125.99501590910972,48.051909827140356L-121.54892802255073,61.19121207651568L-121.54892802255073,50.40415684333592z" style="fill:rgb(255,187,187); fill-opacity: 0.4"></path><path d="M-121.54892878147085,50.404156920255446L-121.54892878147085,61.19121215343521L-125.99501666802986,48.05190990405988z" style="fill:rgb(153,221,255); fill-opacity: 0.4"></path><path d="M-121.54892583758034,61.19121045692226L-121.54892583758034,50.40415693829875M-156.75403539189668,64.75938758858422L-121.54892878147085,61.19121215343521M-121.54892878147085,50.404156920255446L-121.54892878147085,61.19121215343521" style="fill:none;stroke:rgb(0,0,0);stroke-width:1;stroke-linecap:round"></path><path d="M-125.99501666802986,58.83896513723964L-161.20012327845566,62.40714057238865L-161.20012327845566,51.6200853392089zM-121.54892878147085,50.404156920255446L-125.99501666802986,48.05190990405988L-161.20012327845566,51.6200853392089zM-121.54892878147085,61.19121215343521L-156.75403539189668,64.75938758858422L-125.99501666802986,58.83896513723964z" style="fill:rgb(153,221,255); fill-opacity: 0.4"></path><path d="M-36.75653218334179,72.47897380482796L5.4895976866628855,68.19716308627656L5.4895976866628855,-17.20580979861844z" style="fill:rgb(238,238,238); fill-opacity: 0.31"></path><path d="M-156.75403539189665,53.97233235540446L-121.54892878147085,50.404156920255446" style="fill:none;stroke:rgb(0,0,0);stroke-width:1;stroke-linecap:round"></path><path d="M-156.75403539189668,64.75938758858422L-161.20012327845566,62.40714057238865L-125.99501666802986,58.83896513723964z" style="fill:rgb(153,221,255); fill-opacity: 0.4"></path><path d="M-282.43050737398283,-24.34456107231588L-282.43050737398283,83.48946435304109M-282.43050737398283,83.48946435304109L-237.98468376052136,107.00396938412194M-161.20012327845566,51.6200853392089L-161.20012327845566,62.40714057238866M-161.20012327845566,62.40714057238866L-156.75403539189668,64.75938758858422" style="fill:none;stroke:rgb(0,0,0);stroke-width:1;stroke-linecap:round"></path><path d="M-156.75403539189668,64.75938758858422L-121.54892878147085,61.19121215343521L-121.54892878147085,50.404156920255446z" style="fill:rgb(153,221,255); fill-opacity: 0.4"></path><path d="M-36.75653218334178,-12.923999080067052L-36.75653218334179,72.47897380482794" style="fill:none;stroke:rgb(0,0,0);stroke-width:1;stroke-linecap:round"></path><path d="M-247.22540076355702,79.92128891789207L-282.43050737398283,83.48946435304109L-282.43050737398283,-24.34456107231588z" style="fill:rgb(238,238,238); fill-opacity: 0.31"></path><path d="M-161.20012327845566,51.6200853392089L-156.75403539189665,53.97233235540446" style="fill:none;stroke:rgb(0,0,0);stroke-width:1;stroke-linecap:round"></path><path d="M-104.47684609836476,-6.060280039358191L-139.67728913046454,-24.6834245213493L-174.88239574089036,-21.115249086200283z" style="fill:rgb(238,238,238); fill-opacity: 0.31"></path><path d="M-156.75403539189668,53.97233235540446L-121.54892878147085,50.404156920255446L-161.20012327845566,51.6200853392089z" style="fill:rgb(153,221,255); fill-opacity: 0.4"></path><path d="M-36.75653218334178,-12.923999080067052L5.489597686662894,-17.205809798618443" style="fill:none;stroke:rgb(0,0,0);stroke-width:1;stroke-linecap:round"></path><path d="M-161.20012327845566,51.6200853392089L-161.20012327845566,62.40714057238865L-156.75403539189668,53.97233235540446z" style="fill:rgb(153,221,255); fill-opacity: 0.4"></path><path d="M-247.22540076355702,-27.912736507464896L-247.22540076355702,79.92128891789207L-282.43050737398283,-24.34456107231588z" style="fill:rgb(238,238,238); fill-opacity: 0.31"></path><path d="M-156.75403539189668,53.97233235540446L-156.75403539189668,64.75938758858422L-121.54892878147085,50.404156920255446z" style="fill:rgb(153,221,255); fill-opacity: 0.4"></path><path d="M-174.88239574089036,-21.115249086200283L-174.88239574089036,64.28772379869471L-139.6819527087906,-2.492104604209177z" style="fill:rgb(238,238,238); fill-opacity: 0.31"></path><path d="M-161.20012327845566,62.40714057238865L-156.75403539189668,64.75938758858422L-156.75403539189668,53.97233235540446z" style="fill:rgb(153,221,255); fill-opacity: 0.4"></path><path d="M-247.22540076355702,-27.912736507464896L-282.43050737398283,-24.34456107231588M-247.22540076355702,-27.912736507464896L-202.77957715009555,-4.398231476384045" style="fill:none;stroke:rgb(0,0,0);stroke-width:1;stroke-linecap:round"></path><path d="M-36.75653218334179,-12.92399908006705L-36.75653218334179,72.47897380482796L5.4895976866628855,-17.20580979861844zM-104.47684609836476,79.3426928455368L-139.6819527087906,82.91086828068582L-139.67728913046454,60.719548363545705z" style="fill:rgb(238,238,238); fill-opacity: 0.31"></path><path d="M-156.75403539189665,53.97233235540446L-156.75403539189668,64.75938758858422" style="fill:none;stroke:rgb(0,0,0);stroke-width:1;stroke-linecap:round"></path><path d="M-104.47684609836476,-6.060280039358191L-104.47684609836476,79.3426928455368L-139.67728913046454,-24.6834245213493z" style="fill:rgb(238,238,238); fill-opacity: 0.31"></path><path d="M-282.43050737398283,-24.34456107231588L-237.98468376052136,-0.8300560412350307" style="fill:none;stroke:rgb(0,0,0);stroke-width:1;stroke-linecap:round"></path><path d="M-202.77957715009555,103.43579394897293L-247.22540076355702,79.92128891789207L-247.22540076355702,-27.912736507464896zM-237.98468376052136,107.00396938412194L-282.43050737398283,83.48946435304109L-247.22540076355702,79.92128891789207zM-174.88239574089036,64.28772379869471L-139.6819527087906,82.91086828068582L-139.6819527087906,-2.492104604209177z" style="fill:rgb(238,238,238); fill-opacity: 0.31"></path><path d="M-348.4578135166949,-17.652434999965973L-348.4578135166949,90.181590425391M-348.4578135166949,90.181590425391L-351.84382917740214,90.5247763738746M-348.4578135166949,90.181590425391L-304.0119899032334,113.69609545647184M-351.84382917740214,-17.30924905148236L-351.84382917740214,90.5247763738746M-351.84382917740214,90.5247763738746L-307.39800556394067,114.03928140495546M-139.6819527087906,82.91086828068582L-104.47684609836476,79.3426928455368M-104.47684609836476,-6.060280039358191L-104.47684609836476,79.3426928455368M-220.78001207758706,13.575676824474817L-151.00367147338744,20.414748120683836M-220.78001207758706,31.554103070385885L-151.00367147338744,20.414748120683836M-213.36986595333207,35.47451457710536L-151.00367147338744,20.414748120683836M-213.36986595333207,17.496088331194294L-151.00367147338744,20.414748120683836" style="fill:none;stroke:rgb(0,0,0);stroke-width:1;stroke-linecap:round"></path><path d="M-139.6819527087906,-2.492104604209177L-104.47684609836476,-6.060280039358191L-174.88239574089036,-21.115249086200283zM-348.4578135166949,90.181590425391L-351.84382917740214,90.5247763738746L-351.84382917740214,-17.309249051482364zM-139.6819527087906,82.91086828068582L-104.47684609836476,79.3426928455368L-104.47684609836476,-6.060280039358191zM-348.4578135166949,-17.65243499996597L-348.4578135166949,90.181590425391L-351.84382917740214,-17.309249051482364z" style="fill:rgb(238,238,238); fill-opacity: 0.31"></path><path d="M-139.68195270879056,-2.492104604209177L-139.6819527087906,82.91086828068582" style="fill:none;stroke:rgb(0,0,0);stroke-width:1;stroke-linecap:round"></path><path d="M-202.77957715009555,-4.398231476384045L-247.22540076355702,-27.912736507464896L-282.43050737398283,-24.34456107231588zM-282.43050737398283,-24.34456107231588L-282.43050737398283,83.48946435304109L-237.98468376052136,-0.8300560412350307z" style="fill:rgb(238,238,238); fill-opacity: 0.31"></path><path d="M-220.78001265429174,31.55410300073593L-220.78001265429174,13.575677612102993L-151.00367207188168,20.414748362778308z" style="fill:rgb(255,187,187); fill-opacity: 0.4"></path><path d="M-139.68195270879056,-2.492104604209177L-104.47684609836476,-6.060280039358191M-348.4578135166949,-17.652434999965973L-351.84382917740214,-17.30924905148236M-348.4578135166949,-17.652434999965973L-304.0119899032334,5.862070031114877M-351.84382917740214,-17.30924905148236L-307.39800556394067,6.205255979598491" style="fill:none;stroke:rgb(0,0,0);stroke-width:1;stroke-linecap:round"></path><path d="M-202.77957715009555,103.43579394897293L-237.98468376052136,107.00396938412194L-247.22540076355702,79.92128891789207zM-139.6819527087906,-2.492104604209177L-139.6819527087906,82.91086828068582L-104.47684609836476,-6.060280039358191z" style="fill:rgb(238,238,238); fill-opacity: 0.31"></path><path d="M-213.36986617669345,35.474514694395204L-220.78001265429174,31.55410300073593L-151.00367207188168,20.414748362778308z" style="fill:rgb(255,187,187); fill-opacity: 0.4"></path><path d="M-220.78001207758706,13.575676824474817L-220.78001207758706,31.554103070385885M-220.78001207758706,31.554103070385885L-213.36986595333207,35.47451457710536M-220.78001341321192,13.575677689022516L-220.78001341321192,31.55410307765546M-220.78001341321192,31.55410307765546L-255.98512002363773,35.12227851280447M-220.78001341321192,31.55410307765546L-213.36986693561357,35.47451477131473" style="fill:none;stroke:rgb(0,0,0);stroke-width:1;stroke-linecap:round"></path><path d="M-220.78001265429174,13.575677612102993L-213.36986617669345,17.496089305762265L-151.00367207188168,20.414748362778308z" style="fill:rgb(255,187,187); fill-opacity: 0.4"></path><path d="M-307.39800556394067,114.03928140495546L-351.84382917740214,90.5247763738746L-348.4578135166949,90.181590425391z" style="fill:rgb(238,238,238); fill-opacity: 0.31"></path><path d="M-220.78001207758706,13.575676824474817L-213.36986595333207,17.496088331194294M-220.78001341321192,13.575677689022516L-255.98512002363773,17.14385312417153M-220.78001341321192,13.575677689022516L-213.36986693561357,17.49608938268179" style="fill:none;stroke:rgb(0,0,0);stroke-width:1;stroke-linecap:round"></path><path d="M-213.36986617669345,17.496089305762265L-213.36986617669345,35.474514694395204L-151.00367207188168,20.414748362778308zM-220.78001265429174,13.575677612102993L-220.78001265429174,31.55410300073593L-213.36986617669345,35.474514694395204z" style="fill:rgb(255,187,187); fill-opacity: 0.4"></path><path d="M-213.36986693561357,35.47451477131473L-220.78001341321192,31.55410307765546L-220.78001341321192,13.57567768902252zM-220.78001341321192,13.57567768902252L-220.78001341321192,31.55410307765546L-255.9851200236377,17.143853124171535z" style="fill:rgb(153,221,255); fill-opacity: 0.4"></path><path d="M-202.77957715009555,-4.398231476384045L-202.77957715009555,103.43579394897293L-247.22540076355702,-27.912736507464896zM-304.0119899032334,113.69609545647184L-348.4578135166949,90.181590425391L-348.4578135166949,-17.65243499996597z" style="fill:rgb(238,238,238); fill-opacity: 0.31"></path><path d="M-220.78001341321192,31.55410307765546L-255.9851200236377,35.12227851280447L-255.9851200236377,17.143853124171535z" style="fill:rgb(153,221,255); fill-opacity: 0.4"></path><path d="M-220.78001265429174,13.575677612102993L-213.36986617669345,35.474514694395204L-213.36986617669345,17.496089305762265z" style="fill:rgb(255,187,187); fill-opacity: 0.4"></path><path d="M-213.36986693561357,17.49608938268179L-213.36986693561357,35.47451477131473L-220.78001341321192,13.57567768902252zM-213.36986693561357,17.49608938268179L-220.78001341321192,13.57567768902252L-255.9851200236377,17.143853124171535z" style="fill:rgb(153,221,255); fill-opacity: 0.4"></path><path d="M-255.98512002363773,17.14385312417153L-255.98512002363773,35.12227851280447M-255.98512002363773,35.12227851280447L-248.5749735460394,39.042690206463746" style="fill:none;stroke:rgb(0,0,0);stroke-width:1;stroke-linecap:round"></path><path d="M-248.5749735460394,39.042690206463746L-255.9851200236377,35.12227851280447L-220.78001341321192,31.55410307765546z" style="fill:rgb(153,221,255); fill-opacity: 0.4"></path><path d="M-282.43050737398283,83.48946435304109L-237.98468376052136,107.00396938412194L-237.98468376052136,-0.8300560412350307z" style="fill:rgb(238,238,238); fill-opacity: 0.31"></path><path d="M-213.36986693561357,35.47451477131473L-248.5749735460394,39.042690206463746L-220.78001341321192,31.55410307765546z" style="fill:rgb(153,221,255); fill-opacity: 0.4"></path><path d="M-213.36986595333207,35.47451457710536L-213.36986595333207,17.496088331194294M-248.5749735460394,39.042690206463746L-213.36986693561357,35.47451477131473M-213.36986693561357,17.49608938268179L-213.36986693561357,35.47451477131473M-255.98512002363773,17.14385312417153L-248.5749735460394,21.064264817830804M-248.5749735460394,21.064264817830804L-213.36986693561357,17.49608938268179" style="fill:none;stroke:rgb(0,0,0);stroke-width:1;stroke-linecap:round"></path><path d="M-351.84382917740214,-17.309249051482364L-351.84382917740214,90.5247763738746L-307.39800556394067,6.205255979598491z" style="fill:rgb(238,238,238); fill-opacity: 0.31"></path><path d="M-328.827482390503,18.250861321622573L-252.95600822767094,35.47586390628005M-328.827482390503,57.80339803389316L-252.95600822767094,35.47586390628005M-312.5251596097717,66.42830404035327L-252.95600822767094,35.47586390628005M-312.5251596097717,26.875767328082677L-252.95600822767094,35.47586390628005" style="fill:none;stroke:rgb(0,0,0);stroke-width:1;stroke-linecap:round"></path><path d="M-248.5749735460394,39.042690206463746L-213.36986693561357,35.47451477131473L-213.36986693561357,17.49608938268179zM-255.9851200236377,17.143853124171535L-255.9851200236377,35.12227851280447L-248.5749735460394,21.064264817830804z" style="fill:rgb(153,221,255); fill-opacity: 0.4"></path><path d="M-237.98468376052136,107.00396938412194L-202.77957715009555,103.43579394897293M-202.77957715009555,-4.398231476384045L-202.77957715009555,103.43579394897293" style="fill:none;stroke:rgb(0,0,0);stroke-width:1;stroke-linecap:round"></path><path d="M-248.5749735460394,21.064264817830804L-213.36986693561357,17.49608938268179L-255.9851200236377,17.143853124171535z" style="fill:rgb(153,221,255); fill-opacity: 0.4"></path><path d="M-327.13447330080646,18.07926877923526L-327.13447330080646,57.63180463422773M-327.13447330080646,57.63180463422773L-330.52048896151376,57.97499058271134M-327.13447330080646,57.63180463422773L-310.83215105009015,66.25671036027813" style="fill:none;stroke:rgb(0,0,0);stroke-width:1;stroke-linecap:round"></path><path d="M-255.9851200236377,35.12227851280447L-248.5749735460394,39.042690206463746L-248.5749735460394,21.064264817830804z" style="fill:rgb(153,221,255); fill-opacity: 0.4"></path><path d="M-237.98468376052136,-0.8300560412350307L-202.77957715009555,-4.398231476384045L-282.43050737398283,-24.34456107231588z" style="fill:rgb(238,238,238); fill-opacity: 0.31"></path><path d="M-328.827482390503,18.250861321622573L-328.827482390503,57.80339803389316M-328.827482390503,57.80339803389316L-312.5251596097717,66.42830404035327" style="fill:none;stroke:rgb(0,0,0);stroke-width:1;stroke-linecap:round"></path><path d="M-304.0119899032334,5.8620700311148815L-348.4578135166949,-17.65243499996597L-351.84382917740214,-17.309249051482364z" style="fill:rgb(238,238,238); fill-opacity: 0.31"></path><path d="M-330.52048896151376,18.422454727718865L-330.52048896151376,57.97499058271134M-330.52048896151376,57.97499058271134L-314.21816671079745,66.59989630876173" style="fill:none;stroke:rgb(0,0,0);stroke-width:1;stroke-linecap:round"></path><path d="M-328.82748113116014,57.803397608469524L-328.82748113116014,18.250861753477054L-252.95600679165636,35.475863574326304z" style="fill:rgb(255,187,187); fill-opacity: 0.4"></path><path d="M-248.5749735460394,21.064264817830804L-248.5749735460394,39.042690206463746L-213.36986693561357,17.49608938268179zM-327.13447330080646,57.63180463422773L-330.52048896151376,57.97499058271133L-330.52048896151376,18.42245472771886z" style="fill:rgb(153,221,255); fill-opacity: 0.4"></path><path d="M-248.5749735460394,21.064264817830804L-248.5749735460394,39.042690206463746" style="fill:none;stroke:rgb(0,0,0);stroke-width:1;stroke-linecap:round"></path><path d="M-327.13447330080646,18.07926877923525L-327.13447330080646,57.63180463422773L-330.52048896151376,18.42245472771886z" style="fill:rgb(153,221,255); fill-opacity: 0.4"></path><path d="M-304.0119899032334,113.69609545647184L-307.39800556394067,114.03928140495546L-348.4578135166949,90.181590425391z" style="fill:rgb(238,238,238); fill-opacity: 0.31"></path><path d="M-327.13447330080646,18.07926877923526L-330.52048896151376,18.422454727718865M-327.13447330080646,18.07926877923526L-310.83215105009015,26.70417450528566M-328.827482390503,18.250861321622573L-312.5251596097717,26.875767328082677" style="fill:none;stroke:rgb(0,0,0);stroke-width:1;stroke-linecap:round"></path><path d="M-312.5251588804438,66.42830333451994L-328.82748113116014,57.803397608469524L-252.95600679165636,35.475863574326304z" style="fill:rgb(255,187,187); fill-opacity: 0.4"></path><path d="M-330.52048896151376,18.422454727718865L-314.21816671079745,27.04736045376927" style="fill:none;stroke:rgb(0,0,0);stroke-width:1;stroke-linecap:round"></path><path d="M-237.98468376052136,107.00396938412194L-202.77957715009555,103.43579394897293L-202.77957715009555,-4.398231476384045z" style="fill:rgb(238,238,238); fill-opacity: 0.31"></path><path d="M-237.98468376052136,-0.8300560412350307L-237.98468376052136,107.00396938412194" style="fill:none;stroke:rgb(0,0,0);stroke-width:1;stroke-linecap:round"></path><path d="M-314.2181667107974,66.59989630876173L-330.52048896151376,57.97499058271133L-327.13447330080646,57.63180463422773zM-310.83215105009015,66.25671036027812L-327.13447330080646,57.63180463422773L-327.13447330080646,18.07926877923525z" style="fill:rgb(153,221,255); fill-opacity: 0.4"></path><path d="M-328.82748113116014,18.250861753477054L-328.82748113116014,57.803397608469524L-312.5251588804438,66.42830333451994zM-328.82748113116014,18.250861753477054L-312.5251588804438,26.87576747952746L-252.95600679165636,35.475863574326304z" style="fill:rgb(255,187,187); fill-opacity: 0.4"></path><path d="M-351.84382917740214,90.5247763738746L-307.39800556394067,114.03928140495546L-307.39800556394067,6.205255979598491z" style="fill:rgb(238,238,238); fill-opacity: 0.31"></path><path d="M-330.52048896151376,18.42245472771886L-330.52048896151376,57.97499058271133L-314.2181667107974,27.047360453769265zM-310.83215105009015,26.704174505285657L-327.13447330080646,18.07926877923525L-330.52048896151376,18.42245472771886z" style="fill:rgb(153,221,255); fill-opacity: 0.4"></path><path d="M-237.98468376052136,-0.8300560412350307L-202.77957715009555,-4.398231476384045" style="fill:none;stroke:rgb(0,0,0);stroke-width:1;stroke-linecap:round"></path><path d="M-310.83215105009015,66.25671036027812L-314.2181667107974,66.59989630876173L-327.13447330080646,57.63180463422773z" style="fill:rgb(153,221,255); fill-opacity: 0.4"></path><path d="M-237.98468376052136,-0.8300560412350307L-237.98468376052136,107.00396938412194L-202.77957715009555,-4.398231476384045zM-304.0119899032334,5.8620700311148815L-304.0119899032334,113.69609545647184L-348.4578135166949,-17.65243499996597z" style="fill:rgb(238,238,238); fill-opacity: 0.31"></path><path d="M-312.5251588804438,26.87576747952746L-312.5251588804438,66.42830333451994L-252.95600679165636,35.475863574326304z" style="fill:rgb(255,187,187); fill-opacity: 0.4"></path><path d="M-330.52048896151376,57.97499058271133L-314.2181667107974,66.59989630876173L-314.2181667107974,27.047360453769265zM-310.83215105009015,26.704174505285657L-310.83215105009015,66.25671036027812L-327.13447330080646,18.07926877923525z" style="fill:rgb(153,221,255); fill-opacity: 0.4"></path><path d="M-328.82748113116014,18.250861753477054L-312.5251588804438,66.42830333451994L-312.5251588804438,26.87576747952746z" style="fill:rgb(255,187,187); fill-opacity: 0.4"></path><path d="M-314.2181667107974,27.047360453769265L-310.83215105009015,26.704174505285657L-330.52048896151376,18.42245472771886z" style="fill:rgb(153,221,255); fill-opacity: 0.4"></path><path d="M-307.39800556394067,6.205255979598491L-304.0119899032334,5.8620700311148815L-351.84382917740214,-17.309249051482364z" style="fill:rgb(238,238,238); fill-opacity: 0.31"></path><path d="M-314.21816671079745,66.59989630876173L-310.83215105009015,66.25671036027813M-310.83215105009015,26.70417450528566L-310.83215105009015,66.25671036027813M-312.5251596097717,66.42830404035327L-312.5251596097717,26.875767328082677M-314.21816671079745,27.04736045376927L-314.21816671079745,66.59989630876173" style="fill:none;stroke:rgb(0,0,0);stroke-width:1;stroke-linecap:round"></path><path d="M-314.2181667107974,66.59989630876173L-310.83215105009015,66.25671036027812L-310.83215105009015,26.704174505285657z" style="fill:rgb(153,221,255); fill-opacity: 0.4"></path><path d="M-307.39800556394067,114.03928140495546L-304.0119899032334,113.69609545647184M-304.0119899032334,5.862070031114877L-304.0119899032334,113.69609545647184M-307.39800556394067,6.205255979598491L-307.39800556394067,114.03928140495546" style="fill:none;stroke:rgb(0,0,0);stroke-width:1;stroke-linecap:round"></path><path d="M-314.2181667107974,27.047360453769265L-314.2181667107974,66.59989630876173L-310.83215105009015,26.704174505285657z" style="fill:rgb(153,221,255); fill-opacity: 0.4"></path><path d="M-314.21816671079745,27.04736045376927L-310.83215105009015,26.70417450528566" style="fill:none;stroke:rgb(0,0,0);stroke-width:1;stroke-linecap:round"></path><path d="M-307.39800556394067,114.03928140495546L-304.0119899032334,113.69609545647184L-304.0119899032334,5.8620700311148815zM-307.39800556394067,6.205255979598491L-307.39800556394067,114.03928140495546L-304.0119899032334,5.8620700311148815z" style="fill:rgb(238,238,238); fill-opacity: 0.31"></path><path d="M-307.39800556394067,6.205255979598491L-304.0119899032334,5.862070031114877" style="fill:none;stroke:rgb(0,0,0);stroke-width:1;stroke-linecap:round"></path></svg>